<svg height="512pt" viewBox="0 0 512 512" width="512pt" xmlns="http://www.w3.org/2000/svg"><path d="m22.5 447c-8.285156 0-15-6.714844-15-15v-70c0-8.285156 6.714844-15 15-15s15 6.714844 15 15v70c0 8.285156-6.714844 15-15 15zm0 0" fill="#ffb300"/><path d="m451.082031 474.5h-390.164062v-57.5c0-7.730469 6.269531-14 14-14h362.164062c7.730469 0 14 6.269531 14 14zm0 0" fill="#6fe036"/><path d="m437.082031 403h-30c7.730469 0 14 6.269531 14 14v57.5h30v-57.5c0-7.730469-6.269531-14-14-14zm0 0" fill="#66cf32"/><path d="m169 319h174v84h-174zm0 0" fill="#2b6182"/><path d="m378 319h-244c-8.285156 0-15-6.714844-15-15s6.714844-15 15-15h244c8.285156 0 15 6.714844 15 15s-6.714844 15-15 15zm0 0" fill="#4380a0"/><path d="m378 289h-30c8.285156 0 15 6.714844 15 15s-6.714844 15-15 15h30c8.285156 0 15-6.714844 15-15s-6.714844-15-15-15zm0 0" fill="#3b7191"/><path d="m489.5 504.5h-467c-8.285156 0-15-6.714844-15-15s6.714844-15 15-15h467c8.285156 0 15 6.714844 15 15s-6.714844 15-15 15zm0 0" fill="#bf6724"/><path d="m489.5 474.5h-30c8.285156 0 15 6.714844 15 15s-6.714844 15-15 15h30c8.285156 0 15-6.714844 15-15s-6.714844-15-15-15zm0 0" fill="#a35418"/><path d="m358 289h-204v-40c0-5.523438 4.476562-10 10-10h184c5.523438 0 10 4.476562 10 10zm0 0" fill="#ffca28"/><path d="m348 239h-30c5.523438 0 10 4.476562 10 10v40h30v-40c0-5.523438-4.476562-10-10-10zm0 0" fill="#ffb300"/><path d="m344 154h-176c-2.210938 0-4-1.789062-4-4v-22c0-2.210938 1.789062-4 4-4h176c2.210938 0 4 1.789062 4 4v22c0 2.210938-1.789062 4-4 4zm0 0" fill="#ffca28"/><path d="m344 124h-30c2.210938 0 4 1.789062 4 4v22c0 2.210938-1.789062 4-4 4h30c2.210938 0 4-1.789062 4-4v-22c0-2.210938-1.789062-4-4-4zm0 0" fill="#ffb300"/><path d="m341.734375 239h-171.46875l6.734375-85h158zm0 0" fill="#bdf9ff"/><path d="m335 154h-30l6.734375 85h30zm0 0" fill="#8cf2ff"/><path d="m489.5 447c-8.285156 0-15-6.714844-15-15v-70c0-8.285156 6.714844-15 15-15s15 6.714844 15 15v70c0 8.285156-6.714844 15-15 15zm0 0" fill="#ffb300"/><g fill="#ffca28"><path d="m169.171875 447c-8.285156 0-15-6.714844-15-15v-70c0-8.285156 6.714844-15 15-15 8.28125 0 15 6.714844 15 15v70c0 8.285156-6.71875 15-15 15zm0 0"/><path d="m256 447c-8.285156 0-15-6.714844-15-15v-70c0-8.285156 6.714844-15 15-15s15 6.714844 15 15v70c0 8.285156-6.714844 15-15 15zm0 0"/><path d="m95.835938 447c-8.285157 0-15-6.714844-15-15v-70c0-8.285156 6.714843-15 15-15 8.28125 0 15 6.714844 15 15v70c0 8.285156-6.71875 15-15 15zm0 0"/><path d="m416.164062 447c-8.28125 0-15-6.714844-15-15v-70c0-8.285156 6.71875-15 15-15 8.285157 0 15 6.714844 15 15v70c0 8.285156-6.714843 15-15 15zm0 0"/><path d="m342.828125 447c-8.28125 0-15-6.714844-15-15v-70c0-8.285156 6.71875-15 15-15 8.285156 0 15 6.714844 15 15v70c0 8.285156-6.714844 15-15 15zm0 0"/></g><path d="m286 256.5h-60c-4.144531 0-7.5 3.355469-7.5 7.5s3.355469 7.5 7.5 7.5h60c4.144531 0 7.5-3.355469 7.5-7.5s-3.355469-7.5-7.5-7.5zm0 0"/><path d="m256.035156 53.441406c-11.433594 0-22.289062 3.660156-31.394531 10.589844-3.296875 2.507812-3.933594 7.214844-1.425781 10.511719 2.507812 3.296875 7.214844 3.933593 10.511718 1.425781 6.46875-4.925781 14.183594-7.527344 22.308594-7.527344 8.101563 0 15.792969 2.585938 22.25 7.480469 3.300782 2.503906 8.003906 1.859375 10.507813-1.441406 2.503906-3.300781 1.855469-8.003907-1.445313-10.507813-9.082031-6.890625-19.910156-10.53125-31.3125-10.53125zm0 0"/><path d="m301.378906 51.59375c2.503906-3.296875 1.859375-8.003906-1.441406-10.507812-12.742188-9.667969-27.925781-14.777344-43.902344-14.777344-16.019531 0-31.226562 5.128906-43.980468 14.839844-3.296876 2.507812-3.933594 7.214843-1.425782 10.511718 2.507813 3.292969 7.214844 3.933594 10.511719 1.425782 10.121094-7.707032 22.1875-11.777344 34.894531-11.777344 12.675782 0 24.722656 4.054687 34.835938 11.726562 3.296875 2.503906 8.003906 1.859375 10.507812-1.441406zm0 0"/><path d="m209.042969 30.855469c13.625-10.375 29.875-15.855469 46.992187-15.855469 17.082032 0 33.3125 5.464844 46.929688 15.804688 3.300781 2.507812 8.003906 1.863281 10.507812-1.4375 2.507813-3.296876 1.863282-8.003907-1.4375-10.507813-16.25-12.339844-35.613281-18.859375-56-18.859375-20.425781 0-39.820312 6.542969-56.078125 18.917969-3.296875 2.507812-3.933593 7.214843-1.425781 10.511719 2.507812 3.292968 7.214844 3.929687 10.511719 1.425781zm0 0"/><path d="m468.289062 439.5c3.097657 8.730469 11.433594 15 21.210938 15 12.40625 0 22.5-10.09375 22.5-22.5v-70c0-12.40625-10.09375-22.5-22.5-22.5-9.777344 0-18.113281 6.269531-21.210938 15h-30.914062c-2.703125-7.617188-9.398438-13.359375-17.558594-14.699219l-24.550781-21.390625c3.265625-3.90625 5.234375-8.933594 5.234375-14.410156 0-12.40625-10.09375-22.5-22.5-22.5h-12.5v-32.5c0-9.425781-7.492188-17.113281-16.832031-17.464844l-5.550781-70.035156h.882812c6.339844 0 11.5-5.160156 11.5-11.5v-22c0-6.339844-5.160156-11.5-11.5-11.5h-23.902344c-4.144531 0-7.5 3.355469-7.5 7.5s3.355469 7.5 7.5 7.5h20.402344v15h-169v-15h116.363281c4.144531 0 7.5-3.355469 7.5-7.5s-3.355469-7.5-7.5-7.5h-24.363281v-30.5c0-4.144531-3.355469-7.5-7.5-7.5s-7.5 3.355469-7.5 7.5v30.5h-80.5c-6.339844 0-11.5 5.160156-11.5 11.5v22c0 6.339844 5.160156 11.5 11.5 11.5h.882812l-2.359374 29.757812c-.328126 4.128907 2.753906 7.742188 6.882812 8.066407 4.164062.332031 7.742188-2.753907 8.070312-6.882813l2.453126-30.941406h144.140624l5.546876 70h-155.234376l.621094-7.835938c.324219-4.128906-2.757812-7.742187-6.886718-8.070312-4.136719-.3125-7.738282 2.757812-8.066407 6.886719l-.71875 9.054687c-9.339843.355469-16.832031 8.039063-16.832031 17.464844v32.5h-12.5c-12.40625 0-22.5 10.09375-22.5 22.5 0 5.480469 1.96875 10.503906 5.238281 14.410156l-24.554687 21.390625c-8.160156 1.339844-14.855469 7.082031-17.558594 14.699219h-30.914062c-3.097657-8.730469-11.433594-15-21.210938-15-12.40625 0-22.5 10.09375-22.5 22.5v70c0 12.40625 10.09375 22.5 22.5 22.5 9.777344 0 18.113281-6.269531 21.210938-15h9.710937v27.5h-30.921875c-12.40625 0-22.5 10.09375-22.5 22.5s10.09375 22.5 22.5 22.5h393.664062c4.144532 0 7.5-3.355469 7.5-7.5s-3.355468-7.5-7.5-7.5h-393.664062c-4.136719 0-7.5-3.363281-7.5-7.5s3.363281-7.5 7.5-7.5h467c4.136719 0 7.5 3.363281 7.5 7.5s-3.363281 7.5-7.5 7.5h-41.636719c-4.140625 0-7.5 3.355469-7.5 7.5s3.359375 7.5 7.5 7.5h41.636719c12.40625 0 22.5-10.09375 22.5-22.5s-10.09375-22.5-22.5-22.5h-30.921875v-27.5zm-102.960937-15v-14h28.335937v14zm-86.828125 0v-14h41.828125v14zm-86.828125 0v-14h41.828125v14zm-73.335937 0v-14h28.335937v14zm-49.914063 0v-7.5c0-3.035156 2.09375-5.585938 4.914063-6.296875v13.796875zm65.578125-98h27.5v14.347656c-6.300781 2.292969-11.296875 7.328125-13.539062 13.652344h-30.914063c-1.429687-4.027344-3.976563-7.53125-7.265625-10.136719l20.804688-18.121093c1.113281.167968 2.253906.257812 3.414062.257812zm244 0c1.160156 0 2.300781-.089844 3.414062-.257812l20.804688 18.121093c-3.289062 2.605469-5.835938 6.109375-7.265625 10.136719h-30.914063c-2.242187-6.324219-7.238281-11.359375-13.539062-13.652344v-14.347656zm-12.671875 43h28.335937v26h-28.335937zm-29.828125-28.769531c-6.460938 2.234375-11.597656 7.332031-13.878906 13.769531h-44.410156c-3.097657-8.730469-11.433594-15-21.210938-15s-18.113281 6.269531-21.210938 15h-44.410156c-2.28125-6.4375-7.417968-11.535156-13.878906-13.769531v-14.230469h159zm-57 28.769531h41.828125v26h-41.828125zm-86.828125 0h41.828125v26h-41.828125zm-73.335937 0h28.335937v26h-28.335937zm-30-7.5c0-4.136719 3.363281-7.5 7.5-7.5 4.117187 0 7.46875 3.339844 7.496093 7.453125v.046875c0 .03125.003907.0625.003907.097656v69.804688c0 .035156-.003907.066406-.003907.097656v.050781c-.023437 4.109375-3.378906 7.449219-7.496093 7.449219-4.136719 0-7.5-3.363281-7.5-7.5zm73.335937 0c0-4.136719 3.363281-7.5 7.5-7.5 4.132813 0 7.5 3.363281 7.5 7.5v70c0 4.136719-3.367187 7.5-7.5 7.5-4.136719 0-7.5-3.363281-7.5-7.5zm86.828125 0c0-4.136719 3.363281-7.5 7.5-7.5s7.5 3.363281 7.5 7.5v70c0 4.136719-3.363281 7.5-7.5 7.5s-7.5-3.363281-7.5-7.5zm86.828125 0c0-4.136719 3.367187-7.5 7.5-7.5 4.136719 0 7.5 3.363281 7.5 7.5v70c0 4.136719-3.363281 7.5-7.5 7.5-4.132813 0-7.5-3.363281-7.5-7.5zm73.335937 69.902344c0-13.328125 0-53.761719 0-69.804688 0-.035156.007813-.066406.007813-.097656 0-.015625-.003906-.03125-.003906-.050781.027343-4.109375 3.378906-7.449219 7.496093-7.449219 4.136719 0 7.5 3.363281 7.5 7.5v70c0 4.136719-3.363281 7.5-7.5 7.5-4.117187 0-7.46875-3.339844-7.496093-7.453125 0-.015625.003906-.03125.003906-.046875 0-.03125-.007813-.0625-.007813-.097656zm30-21.199219c2.820313.710937 4.914063 3.261719 4.914063 6.296875v7.5h-4.914063zm0-15.125v-26.078125h28.335938v55h-8.421875v-7.5c0-11.320312-8.796875-20.601562-19.914063-21.421875zm50.835938-41.078125c4.136719 0 7.5 3.363281 7.5 7.5v70c0 4.136719-3.363281 7.5-7.5 7.5s-7.5-3.363281-7.5-7.5v-70c0-4.136719 3.363281-7.5 7.5-7.5zm-328-105.5c0-1.378906 1.121094-2.5 2.5-2.5h184c1.378906 0 2.5 1.121094 2.5 2.5v32.5h-189zm-27.5 47.5h244c4.136719 0 7.5 3.363281 7.5 7.5s-3.363281 7.5-7.5 7.5h-244c-4.136719 0-7.5-3.363281-7.5-7.5s3.363281-7.5 7.5-7.5zm-111.5 143c-4.136719 0-7.5-3.363281-7.5-7.5v-70c0-4.136719 3.363281-7.5 7.5-7.5s7.5 3.363281 7.5 7.5v70c0 4.136719-3.363281 7.5-7.5 7.5zm22.5-15v-55h28.335938v26.078125c-11.117188.820313-19.914063 10.101563-19.914063 21.421875v7.5zm398.578125 42.5h-375.15625v-27.5h6.203125c3.097656 8.730469 11.433594 15 21.210938 15 9.777343 0 18.113281-6.269531 21.210937-15h30.914063c3.09375 8.730469 11.433593 15 21.210937 15 9.773437 0 18.113281-6.269531 21.207031-15h44.410156c3.097657 8.730469 11.433594 15 21.210938 15s18.113281-6.269531 21.210938-15h44.410156c3.09375 8.730469 11.433594 15 21.207031 15 9.777344 0 18.117187-6.269531 21.210937-15h30.914063c3.097656 8.730469 11.433594 15 21.210937 15 9.777344 0 18.113282-6.269531 21.210938-15h6.203125zm0 0"/></svg>