<svg xmlns="http://www.w3.org/2000/svg" height="512pt" version="1.1" viewBox="0 0 512 512.001" width="512pt">
<g id="surface1">
<path d="M 103.703125 296.078125 C 103.703125 220.820312 239.96875 63.625 239.96875 63.625 C 239.96875 63.625 376.234375 220.820312 376.234375 296.078125 C 376.234375 371.335938 315.226562 432.34375 239.96875 432.34375 C 164.710938 432.34375 103.703125 371.335938 103.703125 296.078125 Z M 103.703125 296.078125 " style=" stroke:none;fill-rule:nonzero;fill:rgb(65.882353%,87.843137%,34.901961%);fill-opacity:1;" />
<path d="M 280.046875 424.328125 C 204.789062 424.328125 143.78125 363.320312 143.78125 288.0625 C 143.78125 232.570312 217.863281 132.535156 256.78125 83.8125 C 246.535156 71.199219 239.96875 63.625 239.96875 63.625 C 239.96875 63.625 103.703125 220.820312 103.703125 296.078125 C 103.703125 371.335938 164.710938 432.34375 239.96875 432.34375 C 256.332031 432.34375 272.019531 429.457031 286.550781 424.171875 C 284.398438 424.273438 282.230469 424.328125 280.046875 424.328125 Z M 280.046875 424.328125 " style=" stroke:none;fill-rule:nonzero;fill:rgb(57.254902%,85.098039%,18.823529%);fill-opacity:1;" />
<path d="M 119.734375 119.734375 C 119.734375 150.722656 94.613281 175.84375 63.625 175.84375 C 32.636719 175.84375 7.515625 150.722656 7.515625 119.734375 C 7.515625 88.746094 32.636719 63.625 63.625 63.625 C 94.613281 63.625 119.734375 88.746094 119.734375 119.734375 Z M 119.734375 119.734375 " style=" stroke:none;fill-rule:nonzero;fill:rgb(67.843137%,92.156863%,95.294118%);fill-opacity:1;" />
<path d="M 87.671875 159.8125 C 56.683594 159.8125 31.5625 134.691406 31.5625 103.703125 C 31.5625 89.472656 36.867188 76.492188 45.597656 66.601562 C 23.457031 74.113281 7.515625 95.054688 7.515625 119.734375 C 7.515625 150.722656 32.636719 175.84375 63.625 175.84375 C 80.382812 175.84375 95.417969 168.484375 105.699219 156.835938 C 100.039062 158.753906 93.980469 159.8125 87.671875 159.8125 Z M 87.671875 159.8125 " style=" stroke:none;fill-rule:nonzero;fill:rgb(19.215686%,80%,87.843137%);fill-opacity:1;" />
<path d="M 504.484375 63.625 C 504.484375 94.613281 479.363281 119.734375 448.375 119.734375 C 417.386719 119.734375 392.265625 94.613281 392.265625 63.625 C 392.265625 32.636719 417.386719 7.515625 448.375 7.515625 C 479.363281 7.515625 504.484375 32.636719 504.484375 63.625 Z M 504.484375 63.625 " style=" stroke:none;fill-rule:nonzero;fill:rgb(99.215686%,70.980392%,43.921569%);fill-opacity:1;" />
<path d="M 472.421875 103.703125 C 441.433594 103.703125 416.3125 78.582031 416.3125 47.59375 C 416.3125 33.363281 421.621094 20.382812 430.347656 10.492188 C 408.207031 18.003906 392.265625 38.945312 392.265625 63.625 C 392.265625 94.613281 417.386719 119.734375 448.375 119.734375 C 465.136719 119.734375 480.171875 112.375 490.453125 100.726562 C 484.792969 102.644531 478.734375 103.703125 472.421875 103.703125 Z M 472.421875 103.703125 " style=" stroke:none;fill-rule:nonzero;fill:rgb(98.823529%,63.921569%,29.803922%);fill-opacity:1;" />
<path d="M 488.453125 448.375 C 488.453125 479.363281 463.332031 504.484375 432.34375 504.484375 C 401.355469 504.484375 376.234375 479.363281 376.234375 448.375 C 376.234375 417.386719 401.355469 392.265625 432.34375 392.265625 C 463.332031 392.265625 488.453125 417.386719 488.453125 448.375 Z M 488.453125 448.375 " style=" stroke:none;fill-rule:nonzero;fill:rgb(100%,90.588235%,50.980392%);fill-opacity:1;" />
<path d="M 456.390625 488.453125 C 425.402344 488.453125 400.28125 463.332031 400.28125 432.34375 C 400.28125 418.117188 405.589844 405.132812 414.316406 395.242188 C 392.175781 402.753906 376.234375 423.695312 376.234375 448.375 C 376.234375 479.363281 401.355469 504.484375 432.34375 504.484375 C 449.105469 504.484375 464.140625 497.128906 474.421875 485.476562 C 468.761719 487.398438 462.703125 488.453125 456.390625 488.453125 Z M 456.390625 488.453125 " style=" stroke:none;fill-rule:nonzero;fill:rgb(100%,84.313725%,18.039216%);fill-opacity:1;" />
<path d="M 79.65625 96.1875 C 75.507812 96.1875 72.140625 99.550781 72.140625 103.703125 L 72.140625 122.359375 L 53.460938 99.007812 C 51.457031 96.5 47.976562 95.542969 44.96875 96.660156 C 42.0625 97.746094 40.078125 100.597656 40.078125 103.703125 L 40.078125 143.78125 C 40.078125 147.929688 43.441406 151.296875 47.59375 151.296875 C 51.742188 151.296875 55.109375 147.929688 55.109375 143.78125 L 55.109375 125.125 L 73.789062 148.476562 C 75.890625 151.105469 79.597656 152.015625 82.679688 150.660156 C 85.378906 149.476562 87.171875 146.730469 87.171875 143.78125 L 87.171875 103.703125 C 87.171875 99.550781 83.804688 96.1875 79.65625 96.1875 Z M 79.65625 96.1875 " style=" stroke:none;fill-rule:nonzero;fill:rgb(0%,0%,0%);fill-opacity:1;" />
<path d="M 432.34375 95.1875 C 436.496094 95.1875 439.859375 91.820312 439.859375 87.671875 L 439.859375 71.121094 C 440.027344 71.132812 440.191406 71.140625 440.359375 71.140625 L 452.382812 71.140625 C 463.15625 71.140625 471.921875 62.375 471.921875 51.601562 C 471.921875 40.828125 463.15625 32.0625 452.382812 32.0625 L 432.34375 32.0625 C 428.195312 32.0625 424.832031 35.425781 424.832031 39.578125 L 424.832031 87.671875 C 424.832031 91.820312 428.195312 95.1875 432.34375 95.1875 Z M 439.859375 47.09375 L 452.382812 47.09375 C 454.871094 47.09375 456.894531 49.113281 456.894531 51.601562 C 456.894531 54.085938 454.871094 56.109375 452.382812 56.109375 L 440.359375 56.109375 C 440.191406 56.109375 440.027344 56.113281 439.859375 56.125 Z M 439.859375 47.09375 " style=" stroke:none;fill-rule:nonzero;fill:rgb(0%,0%,0%);fill-opacity:1;" />
<path d="M 432.34375 384.75 C 399.804688 384.75 372.910156 409.308594 369.179688 440.859375 L 339.269531 440.859375 L 316.285156 417.878906 C 356.777344 392.414062 383.75 347.339844 383.75 296.078125 C 383.75 249.449219 335.394531 174.890625 295.871094 121.734375 L 332.007812 71.140625 L 385.210938 71.140625 C 388.941406 102.691406 415.835938 127.25 448.375 127.25 C 483.457031 127.25 512 98.707031 512 63.625 C 512 28.542969 483.457031 0 448.375 0 C 415.835938 0 388.941406 24.558594 385.210938 56.109375 L 328.140625 56.109375 C 325.714844 56.109375 323.4375 57.28125 322.027344 59.257812 L 286.386719 109.152344 C 264.773438 80.878906 247.601562 60.957031 245.648438 58.703125 C 242.699219 55.296875 237.242188 55.296875 234.292969 58.703125 C 232.269531 61.035156 213.917969 82.320312 191.214844 112.21875 L 126.789062 112.21875 C 123.058594 80.667969 96.164062 56.109375 63.625 56.109375 C 28.542969 56.109375 0 84.652344 0 119.734375 C 0 154.816406 28.542969 183.359375 63.625 183.359375 C 96.164062 183.359375 123.058594 158.800781 126.789062 127.25 L 179.996094 127.25 C 141.300781 179.945312 96.1875 251.039062 96.1875 296.078125 C 96.1875 334.648438 111.253906 370.863281 138.609375 398.054688 C 141.550781 400.980469 146.308594 400.964844 149.234375 398.019531 C 152.160156 395.078125 152.148438 390.320312 149.203125 387.394531 C 124.707031 363.046875 111.21875 330.613281 111.21875 296.078125 C 111.21875 233.039062 214.382812 105.828125 239.96875 75.253906 C 265.558594 105.824219 368.71875 233.015625 368.71875 296.078125 C 368.71875 364.550781 314.992188 420.699219 247.484375 424.605469 L 247.484375 373.027344 L 347.320312 326.949219 C 351.089844 325.207031 352.734375 320.746094 350.996094 316.976562 C 349.257812 313.207031 344.792969 311.5625 341.023438 313.300781 L 247.484375 356.472656 L 247.484375 292.707031 L 323.484375 254.707031 C 327.199219 252.851562 328.703125 248.335938 326.847656 244.625 C 324.992188 240.910156 320.476562 239.40625 316.765625 241.261719 L 247.484375 275.902344 L 247.484375 220.566406 L 291.421875 198.597656 C 295.136719 196.742188 296.640625 192.226562 294.785156 188.515625 C 292.929688 184.800781 288.414062 183.296875 284.703125 185.152344 L 247.484375 203.761719 L 247.484375 159.8125 C 247.484375 155.660156 244.121094 152.296875 239.96875 152.296875 C 235.820312 152.296875 232.453125 155.660156 232.453125 159.8125 L 232.453125 203.761719 L 195.234375 185.152344 C 191.527344 183.296875 187.011719 184.800781 185.152344 188.515625 C 183.296875 192.226562 184.800781 196.742188 188.515625 198.597656 L 232.453125 220.566406 L 232.453125 275.902344 L 163.171875 241.261719 C 159.464844 239.40625 154.949219 240.910156 153.089844 244.625 C 151.234375 248.335938 152.738281 252.851562 156.453125 254.707031 L 232.453125 292.707031 L 232.453125 356.472656 L 138.914062 313.300781 C 135.144531 311.5625 130.683594 313.207031 128.941406 316.976562 C 127.203125 320.746094 128.847656 325.210938 132.617188 326.949219 L 232.453125 373.027344 L 232.453125 424.601562 C 212.753906 423.449219 193.523438 417.804688 176.425781 408.085938 C 172.816406 406.03125 168.230469 407.292969 166.179688 410.902344 C 164.128906 414.507812 165.386719 419.097656 168.996094 421.148438 C 190.523438 433.386719 215.066406 439.859375 239.96875 439.859375 C 262.417969 439.859375 283.675781 434.683594 302.625 425.472656 L 330.84375 453.691406 C 332.253906 455.101562 334.164062 455.890625 336.15625 455.890625 L 369.179688 455.890625 C 372.910156 487.441406 399.804688 512 432.34375 512 C 467.425781 512 495.96875 483.460938 495.96875 448.375 C 495.96875 413.292969 467.425781 384.75 432.34375 384.75 Z M 448.375 15.03125 C 475.171875 15.03125 496.972656 36.828125 496.972656 63.625 C 496.972656 90.417969 475.171875 112.21875 448.375 112.21875 C 421.582031 112.21875 399.78125 90.417969 399.78125 63.625 C 399.78125 36.828125 421.582031 15.03125 448.375 15.03125 Z M 63.625 168.328125 C 36.828125 168.328125 15.03125 146.527344 15.03125 119.734375 C 15.03125 92.9375 36.828125 71.140625 63.625 71.140625 C 90.421875 71.140625 112.21875 92.9375 112.21875 119.734375 C 112.21875 146.527344 90.421875 168.328125 63.625 168.328125 Z M 432.34375 496.96875 C 405.550781 496.96875 383.75 475.171875 383.75 448.375 C 383.75 421.582031 405.550781 399.78125 432.34375 399.78125 C 459.140625 399.78125 480.941406 421.582031 480.941406 448.375 C 480.941406 475.171875 459.140625 496.96875 432.34375 496.96875 Z M 432.34375 496.96875 " style=" stroke:none;fill-rule:nonzero;fill:rgb(0%,0%,0%);fill-opacity:1;" />
<path d="M 454.386719 419.820312 C 451.898438 416.5 447.1875 415.828125 443.867188 418.316406 L 423.828125 433.347656 L 423.828125 424.328125 C 423.828125 420.179688 420.464844 416.8125 416.3125 416.8125 C 412.164062 416.8125 408.800781 420.179688 408.800781 424.328125 L 408.800781 472.421875 C 408.800781 476.574219 412.164062 479.9375 416.3125 479.9375 C 420.464844 479.9375 423.828125 476.574219 423.828125 472.421875 L 423.828125 463.40625 L 443.867188 478.433594 C 447.144531 480.890625 451.933594 480.207031 454.386719 476.929688 C 456.878906 473.613281 456.203125 468.902344 452.886719 466.410156 L 428.839844 448.375 L 452.886719 430.339844 C 456.203125 427.851562 456.878906 423.140625 454.386719 419.820312 Z M 454.386719 419.820312 " style=" stroke:none;fill-rule:nonzero;fill:rgb(0%,0%,0%);fill-opacity:1;" />
</g>
</svg>